<?xml version="1.0" encoding="UTF-8" standalone="no"?>
<svg
   xmlns:dc="http://purl.org/dc/elements/1.1/"
   xmlns:cc="http://creativecommons.org/ns#"
   xmlns:rdf="http://www.w3.org/1999/02/22-rdf-syntax-ns#"
   xmlns:svg="http://www.w3.org/2000/svg"
   xmlns="http://www.w3.org/2000/svg"
   xmlns:sodipodi="http://sodipodi.sourceforge.net/DTD/sodipodi-0.dtd"
   xmlns:inkscape="http://www.inkscape.org/namespaces/inkscape"
   width="210mm"
   height="297mm"
   viewBox="0 0 210 297"
   version="1.1"
   id="svg8"
   inkscape:version="1.0.1 (c497b03c, 2020-09-10)"
   sodipodi:docname="logo.svg">
  <defs
     id="defs2" />
  <sodipodi:namedview
     id="base"
     pagecolor="#ffffff"
     bordercolor="#666666"
     borderopacity="1.0"
     inkscape:pageopacity="0.0"
     inkscape:pageshadow="2"
     inkscape:zoom="0.35569997"
     inkscape:cx="-248.13115"
     inkscape:cy="521.5089"
     inkscape:document-units="mm"
     inkscape:current-layer="layer1"
     inkscape:document-rotation="0"
     showgrid="false"
     inkscape:window-width="1440"
     inkscape:window-height="847"
     inkscape:window-x="0"
     inkscape:window-y="25"
     inkscape:window-maximized="1" />
  <metadata
     id="metadata5">
    <rdf:RDF>
      <cc:Work
         rdf:about="">
        <dc:format>image/svg+xml</dc:format>
        <dc:type
           rdf:resource="http://purl.org/dc/dcmitype/StillImage" />
        <dc:title />
      </cc:Work>
    </rdf:RDF>
  </metadata>
  <g
     inkscape:label="Vrstva 1"
     inkscape:groupmode="layer"
     id="layer1">
    <rect
       style="opacity:0;fill:#ffffff;fill-opacity:0;stroke-width:0.286216"
       id="rect856"
       width="167.84767"
       height="223.79689"
       x="23.18891"
       y="33.150063"
       ry="6.9699159"
       inkscape:export-xdpi="72.637283"
       inkscape:export-ydpi="72.637283" />
    <g
       id="g892"
       transform="translate(308.69297,73.640007)">
      <path
         id="rect10"
         style="mix-blend-mode:normal;fill:#0098ff;fill-opacity:1;stroke-width:0.264583"
         d="m -201.58049,-9.1808533 c -1.53372,0 -3.06743,0.587991 -4.24264,1.763199 l -19.7988,19.7987933 c -2.35042,2.35042 -2.35042,6.134851 0,8.485271 l 9.28523,9.285219 a 25,25 0 0 1 15.53032,-5.409491 25,25 0 0 1 14.64975,4.741831 l 8.61808,-8.617559 c 2.35042,-2.35042 2.35043,-6.134851 0,-8.485271 l -19.79931,-19.7987933 c -1.17521,-1.175208 -2.70892,-1.763199 -4.24263,-1.763199 z m -32.77424,32.7747423 c -1.53371,0 -3.06742,0.58747 -4.24263,1.762691 l -19.79879,19.798789 c -2.35043,2.350411 -2.35043,6.134852 0,8.48527 l 19.79879,19.7993 c 2.35042,2.350421 6.13484,2.350421 8.48528,0 l 9.04803,-9.04802 a 25,25 0 0 1 -4.74236,-14.649759 25,25 0 0 1 5.03432,-15.04559 l -9.33999,-9.33999 c -1.17521,-1.175221 -2.70893,-1.762691 -4.24265,-1.762691 z m 65.54898,0 c -1.53371,0 -3.06743,0.58747 -4.24264,1.762691 l -8.47493,8.474408 a 25,25 0 0 1 5.71696,15.911172 25,25 0 0 1 -5.40949,15.530319 l 8.16746,8.16746 c 2.35042,2.350421 6.13484,2.350421 8.48528,0 l 19.79879,-19.7993 c 2.35042,-2.350418 2.35042,-6.134859 0,-8.48527 L -164.56311,25.35658 c -1.17521,-1.175221 -2.70892,-1.762691 -4.24264,-1.762691 z m -47.9113,45.431342 -8.90488,8.90488 c -2.35042,2.350429 -2.35042,6.134849 0,8.48527 l 19.7988,19.798789 c 2.35042,2.35043 6.13485,2.35043 8.48527,0 l 19.79931,-19.798789 c 2.35042,-2.350421 2.35042,-6.134841 0,-8.48527 l -8.22224,-8.222242 a 25,25 0 0 1 -15.04559,5.03432 25,25 0 0 1 -15.91067,-5.716958 z"
         inkscape:export-xdpi="94.868614"
         inkscape:export-ydpi="94.868614" />
      <circle
         style="mix-blend-mode:normal;fill:#62d2ff;fill-opacity:1;stroke-width:0.264583"
         id="path885"
         cx="-200.80635"
         cy="49.741962"
         r="18.595963"
         inkscape:export-xdpi="94.868614"
         inkscape:export-ydpi="94.868614" />
      <text
         xml:space="preserve"
         style="font-style:normal;font-variant:normal;font-weight:bold;font-stretch:normal;font-size:44.9228px;line-height:1.25;font-family:Jura;-inkscape-font-specification:'Jura Bold';fill:#0098ff;fill-opacity:1;stroke:none;stroke-width:1.12308"
         x="-270.47568"
         y="151.97484"
         id="text1024"
         inkscape:export-xdpi="94.868614"
         inkscape:export-ydpi="94.868614"><tspan
           sodipodi:role="line"
           id="tspan1022"
           x="-270.47568"
           y="151.97484"
           style="font-style:normal;font-variant:normal;font-weight:bold;font-stretch:normal;font-family:Jura;-inkscape-font-specification:'Jura Bold';fill:#0098ff;fill-opacity:1;stroke-width:1.12308">Dotrix</tspan></text>
    </g>
  </g>
</svg>
