{
    "asset" : {
        "generator" : "Khronos glTF Blender I/O v1.3.48",
        "version" : "2.0"
    },
    "scene" : 0,
    "scenes" : [
        {
            "name" : "Scene",
            "nodes" : [
                4
            ]
        }
    ],
    "nodes" : [
        {
            "mesh" : 0,
            "name" : "wheel-1"
        },
        {
            "mesh" : 1,
            "name" : "wheel-2"
        },
        {
            "mesh" : 2,
            "name" : "wheel-3"
        },
        {
            "mesh" : 3,
            "name" : "wheel-4"
        },
        {
            "children" : [
                0,
                1,
                2,
                3
            ],
            "mesh" : 4,
            "name" : "Object",
            "rotation" : [
                0.7071067690849304,
                0,
                0,
                0.7071068286895752
            ]
        }
    ],
    "materials" : [
        {
            "doubleSided" : true,
            "emissiveFactor" : [
                0,
                0,
                0
            ],
            "name" : "Material.car",
            "pbrMetallicRoughness" : {
                "baseColorTexture" : {
                    "index" : 0,
                    "texCoord" : 0
                },
                "metallicFactor" : 1,
                "roughnessFactor" : 0.5527864098548889
            }
        }
    ],
    "meshes" : [
        {
            "name" : "car9.010",
            "primitives" : [
                {
                    "attributes" : {
                        "POSITION" : 0,
                        "NORMAL" : 1,
                        "TEXCOORD_0" : 2
                    },
                    "indices" : 3,
                    "material" : 0
                }
            ]
        },
        {
            "name" : "car9.009",
            "primitives" : [
                {
                    "attributes" : {
                        "POSITION" : 4,
                        "NORMAL" : 5,
                        "TEXCOORD_0" : 6
                    },
                    "indices" : 3,
                    "material" : 0
                }
            ]
        },
        {
            "name" : "car9.011",
            "primitives" : [
                {
                    "attributes" : {
                        "POSITION" : 7,
                        "NORMAL" : 8,
                        "TEXCOORD_0" : 9
                    },
                    "indices" : 10,
                    "material" : 0
                }
            ]
        },
        {
            "name" : "car9.012",
            "primitives" : [
                {
                    "attributes" : {
                        "POSITION" : 11,
                        "NORMAL" : 12,
                        "TEXCOORD_0" : 13
                    },
                    "indices" : 10,
                    "material" : 0
                }
            ]
        },
        {
            "name" : "car",
            "primitives" : [
                {
                    "attributes" : {
                        "POSITION" : 14,
                        "NORMAL" : 15,
                        "TEXCOORD_0" : 16
                    },
                    "indices" : 17,
                    "material" : 0
                }
            ]
        }
    ],
    "textures" : [
        {
            "source" : 0
        }
    ],
    "images" : [
        {
            "bufferView" : 4,
            "mimeType" : "image/png",
            "name" : "Car Texture 2"
        }
    ],
    "accessors" : [
        {
            "bufferView" : 0,
            "componentType" : 5126,
            "count" : 392,
            "max" : [
                1.5907413959503174,
                0.6635124683380127,
                -0.6478516459465027
            ],
            "min" : [
                0.9272288680076599,
                -3.749521582108173e-08,
                -0.9045068025588989
            ],
            "type" : "VEC3"
        },
        {
            "bufferView" : 1,
            "componentType" : 5126,
            "count" : 392,
            "type" : "VEC3"
        },
        {
            "bufferView" : 2,
            "componentType" : 5126,
            "count" : 392,
            "type" : "VEC2"
        },
        {
            "bufferView" : 3,
            "componentType" : 5123,
            "count" : 1050,
            "type" : "SCALAR"
        },
        {
            "bufferView" : 5,
            "componentType" : 5126,
            "count" : 392,
            "max" : [
                -0.9272298812866211,
                0.6635124683380127,
                -0.647849977016449
            ],
            "min" : [
                -1.5907424688339233,
                -3.749514476680815e-08,
                -0.9045051336288452
            ],
            "type" : "VEC3"
        },
        {
            "bufferView" : 6,
            "componentType" : 5126,
            "count" : 392,
            "type" : "VEC3"
        },
        {
            "bufferView" : 7,
            "componentType" : 5126,
            "count" : 392,
            "type" : "VEC2"
        },
        {
            "bufferView" : 8,
            "componentType" : 5126,
            "count" : 392,
            "max" : [
                1.5907424688339233,
                0.6635125875473022,
                0.9045051336288452
            ],
            "min" : [
                0.9272298812866211,
                3.024941719331764e-08,
                0.6478500366210938
            ],
            "type" : "VEC3"
        },
        {
            "bufferView" : 9,
            "componentType" : 5126,
            "count" : 392,
            "type" : "VEC3"
        },
        {
            "bufferView" : 10,
            "componentType" : 5126,
            "count" : 392,
            "type" : "VEC2"
        },
        {
            "bufferView" : 11,
            "componentType" : 5123,
            "count" : 1050,
            "type" : "SCALAR"
        },
        {
            "bufferView" : 12,
            "componentType" : 5126,
            "count" : 392,
            "max" : [
                -0.9272288680076599,
                0.6635125875473022,
                0.9045068025588989
            ],
            "min" : [
                -1.5907413959503174,
                3.0249491800304895e-08,
                0.6478517055511475
            ],
            "type" : "VEC3"
        },
        {
            "bufferView" : 13,
            "componentType" : 5126,
            "count" : 392,
            "type" : "VEC3"
        },
        {
            "bufferView" : 14,
            "componentType" : 5126,
            "count" : 392,
            "type" : "VEC2"
        },
        {
            "bufferView" : 15,
            "componentType" : 5126,
            "count" : 4715,
            "max" : [
                2.1402196884155273,
                1.5686804056167603,
                1.0531977415084839
            ],
            "min" : [
                -1.9905272722244263,
                0.15677833557128906,
                -1.0531970262527466
            ],
            "type" : "VEC3"
        },
        {
            "bufferView" : 16,
            "componentType" : 5126,
            "count" : 4715,
            "type" : "VEC3"
        },
        {
            "bufferView" : 17,
            "componentType" : 5126,
            "count" : 4715,
            "type" : "VEC2"
        },
        {
            "bufferView" : 18,
            "componentType" : 5123,
            "count" : 11532,
            "type" : "SCALAR"
        }
    ],
    "bufferViews" : [
        {
            "buffer" : 0,
            "byteLength" : 4704,
            "byteOffset" : 0
        },
        {
            "buffer" : 0,
            "byteLength" : 4704,
            "byteOffset" : 4704
        },
        {
            "buffer" : 0,
            "byteLength" : 3136,
            "byteOffset" : 9408
        },
        {
            "buffer" : 0,
            "byteLength" : 2100,
            "byteOffset" : 12544
        },
        {
            "buffer" : 0,
            "byteLength" : 6142,
            "byteOffset" : 14644
        },
        {
            "buffer" : 0,
            "byteLength" : 4704,
            "byteOffset" : 20788
        },
        {
            "buffer" : 0,
            "byteLength" : 4704,
            "byteOffset" : 25492
        },
        {
            "buffer" : 0,
            "byteLength" : 3136,
            "byteOffset" : 30196
        },
        {
            "buffer" : 0,
            "byteLength" : 4704,
            "byteOffset" : 33332
        },
        {
            "buffer" : 0,
            "byteLength" : 4704,
            "byteOffset" : 38036
        },
        {
            "buffer" : 0,
            "byteLength" : 3136,
            "byteOffset" : 42740
        },
        {
            "buffer" : 0,
            "byteLength" : 2100,
            "byteOffset" : 45876
        },
        {
            "buffer" : 0,
            "byteLength" : 4704,
            "byteOffset" : 47976
        },
        {
            "buffer" : 0,
            "byteLength" : 4704,
            "byteOffset" : 52680
        },
        {
            "buffer" : 0,
            "byteLength" : 3136,
            "byteOffset" : 57384
        },
        {
            "buffer" : 0,
            "byteLength" : 56580,
            "byteOffset" : 60520
        },
        {
            "buffer" : 0,
            "byteLength" : 56580,
            "byteOffset" : 117100
        },
        {
            "buffer" : 0,
            "byteLength" : 37720,
            "byteOffset" : 173680
        },
        {
            "buffer" : 0,
            "byteLength" : 23064,
            "byteOffset" : 211400
        }
    ],
    "buffers" : [
        {
            "byteLength" : 234464,
            "uri" : "data:application/octet-stream;base64,"
        }
    ]
}
